<svg xmlns="http://www.w3.org/2000/svg" viewBox="0 0 60 60"><defs/><g fill="none" fill-rule="evenodd"><path fill="#ffdf00" d="M43 28.86v7.05c-.0020635 2.7084735-.4375705 5.3991641-1.29 7.97-.4560298 1.356976-1.4302061 2.478537-2.71 3.12v1c-.0032948-1.1032019-.8967981-1.9967052-2-2h-4c-1.1032019.0032948-1.9967052.8967981-2 2v4H16l-9.41 6.81c-.30439052.2224316-.70800679.254769-1.04392916.0836387C5.21014848 58.7225085 4.99902009 58.3769993 5 58v-6c-2.209139 0-4-1.790861-4-4V23c0-2.209139 1.790861-4 4-4h26.58c1.5642303 5.228523 6.0192577 9.0749827 11.42 9.86z"/><path fill="#fec108" d="M5 57.79V58c-.00097991.3769993.21014848.7225085.54607084.8936387.33592237.1711303.73953864.1387929 1.04392916-.0836387L16 52h-3zM28 48v4h3v-4c.0032948-1.1032019.8967981-1.9967052 2-2h-3c-1.1032019.0032948-1.9967052.8967981-2 2zM31.58 19h-3c1.5642303 5.228523 6.0192577 9.0749827 11.42 9.86v7.05c-.0020635 2.7084735-.4375705 5.3991641-1.29 7.97-.2840608.8182278-.7600097 1.5564973-1.388 2.153.9649215.1573998 1.6746218.9893309 1.678 1.967v-1c1.2797939-.641463 2.2539702-1.763024 2.71-3.12.8524295-2.5708359 1.2879365-5.2615265 1.29-7.97v-7.05c-5.4007423-.7850173-9.8557697-4.631477-11.42-9.86z"/><path fill="#ffdf00" d="M59 15c0 3.7130309-1.4749958 7.2739856-4.1005051 9.8994949S48.7130309 29 45 29a14.60000366 14.60000366 0 01-2-.14c-7.3949205-1.0673651-12.6485305-7.7535663-11.9362337-15.1910894.7122969-7.43752313 7.1394551-13.0050489 14.6025421-12.64945207S58.9980822 7.5284464 59 15z"/><path fill="#fec108" d="M45 1a14.02100086 14.02100086 0 00-1.5.083c7.0950393.77842368 12.4685495 6.76982671 12.4731658 13.9074387C55.9777821 22.1280506 50.6120264 28.1263994 43.518 28.914A14.20001505 14.20001505 0 0045 29c7.7319864-1e-7 13.9999998-6.2680136 13.9999998-14 0-7.73198642-6.2680134-13.99999988-13.9999998-14z"/><path fill="#607d8b" d="M52.77 17.93c-.8896142 3.5670424-4.0936968 6.0701754-7.77 6.0701754S38.1196142 21.4970424 37.23 17.93c5.1057936-1.2399825 10.4342064-1.2399825 15.54 0z"/><path fill="#f5f5f5" d="M58 49c-.0081672 1.1011688-.8988312 1.9918328-2 2h-1c1.1032019.0032948 1.9967052.8967981 2 2-.0081672 1.1011688-.8988312 1.9918328-2 2h-1c1.1032019.0032948 1.9967052.8967981 2 2-.0081672 1.1011688-.8988312 1.9918328-2 2H42c-1.6568542 0-3-1.3431458-3-3v-9c1.2797939-.641463 2.2539702-1.763024 2.71-3.12.8524295-2.5708359 1.2879365-5.2615265 1.29-7.97-.0024176-.6212791.4393403-1.1555958 1.05-1.27 1.56-.29 2.55.8 3.15 1.97.5441917 1.0925212.8185252 2.2995886.8 3.52V43h8c1.1032019.0032948 1.9967052.8967981 2 2-.0081672 1.1011688-.8988312 1.9918328-2 2 1.1032019.0032948 1.9967052.8967981 2 2z"/><rect width="8" height="13" x="31" y="46" fill="#02a9f4" rx="2"/><g fill="#000"><path d="M6 32.994h32c.5522847 0 1-.4477153 1-1s-.4477153-1-1-1H6c-.55228475 0-1 .4477153-1 1s.44771525 1 1 1zM38 37.994H6c-.55228475 0-1 .4477153-1 1s.44771525 1 1 1h32c.5522847 0 1-.4477153 1-1s-.4477153-1-1-1zM27 44.994H6c-.55228475 0-1 .4477153-1 1s.44771525 1 1 1h21c.5522847 0 1-.4477153 1-1s-.4477153-1-1-1z"/><path fill-rule="nonzero" d="M45 0c-4.5048405-.00091947-8.7715761 2.02283737-11.6210435 5.51198112C30.5294891 9.00112488 29.3990318 13.5861757 30.3 18H5c-2.76005315.0033061-4.99669388 2.2399468-5 5v25c.00261226 2.3752386 1.67337089 4.421918 4 4.9V58c-.0008576.7525832.42083197 1.4419369 1.0912397 1.7838955.67040772.3419586 1.47602512.2786242 2.0847603-.1638955L16.324 53H30v4c0 1.6568542 1.3431458 3 3 3h4c.8723315-.0030777 1.6996037-.3878469 2.264-1.053.014 0 .029 0 .043-.009.7322204.6799882 1.6937389 1.0591685 2.693 1.062h12c1.6568542 0 3-1.3431458 3-3-.0029438-.5168022-.1408282-1.0238723-.4-1.471 1.3621357-.8420957 1.8056041-2.6159693 1-4 .7499633-.4670461 1.2531566-1.2436432 1.3729866-2.1189819.11983-.8753386-.1561362-1.7585992-.7529866-2.4100181.7990291-.8759347 1.0043504-2.1415341.5232243-3.2251516C58.2620981 42.691231 57.1856144 41.994753 56 42h-7v-1.866c.0189207-1.3822529-.2941812-2.748859-.913-3.985-.962-1.873-2.411-2.755-4.087-2.509v-3.691c.332.022.662.051 1 .051 8.2842712 0 15-6.7157288 15-15 0-8.28427125-6.7157288-15-15-15zm-8 58h-4c-.5522847 0-1-.4477153-1-1v-9c0-.5522847.4477153-1 1-1h4c.5522847 0 1 .4477153 1 1v9c0 .5522847-.4477153 1-1 1zm7.224-22.379c.339-.058 1.23-.222 2.084 1.442.4697344.9547308.7068627 2.0070731.692 3.071V43c0 .5522847.4477153 1 1 1h8c.5522847 0 1 .4477153 1 1s-.4477153 1-1 1h-3c-.5522847 0-1 .4477153-1 1s.4477153 1 1 1h3c.5522847 0 1 .4477153 1 1s-.4477153 1-1 1h-3c-.5522847 0-1 .4477153-1 1s.4477153 1 1 1h2c.5522847 0 1 .4477153 1 1s-.4477153 1-1 1h-2c-.5522847 0-1 .4477153-1 1s.4477153 1 1 1h1c.5522847 0 1 .4477153 1 1s-.4477153 1-1 1H42c-1.1045695 0-2-.8954305-2-2v-8.417c1.2518737-.7841677 2.1908553-1.9806176 2.655-3.383.89236-2.6720547 1.3465608-5.4708773 1.345-8.288-.0003582-.1367074.0917516-.2563678.224-.291zm-2.224.29c.0004786 2.6004762-.4185716 5.1840001-1.241 7.651-.3104035.9191185-.91894 1.7082098-1.729 2.242-.5506363-.515084-1.2760045-.8023727-2.03-.804h-4c-1.6568542 0-3 1.3431458-3 3v3H16c-.2105361-.0003901-.4157478.0661461-.586.19L6 58v-6c0-.5522847-.44771525-1-1-1-1.65685425 0-3-1.3431458-3-3V23c0-1.6568542 1.34314575-3 3-3h25.875c.5085 1.4312888 1.2321394 2.7767322 2.146 3.99H6c-.55228475 0-1 .4477153-1 1s.44771525 1 1 1h28.826c2.005643 1.8714643 4.4875649 3.1549784 7.174 3.71v6.21zM45 28c-7.1797017 0-13-5.8202983-13-13 0-7.17970175 5.8202983-13 13-13s13 5.82029825 13 13c-.008266 7.1762751-5.8237249 12.991734-13 13z"/><path d="M37.371 13.929l5-2c.335858-.1340453.5731816-.4389716.6206622-.7974606.0474806-.3584889-.1022799-.7146832-.3916622-.9315394l-4-3c-.4418278-.33137085-1.0686292-.2418278-1.4.2s-.2418278 1.06862915.2 1.4l2.577 1.932-3.348 1.339c-.5130725.2048977-.7628976.7869275-.558 1.3.2048977.5130725.7869275.7628976 1.3.558zM53.371 12.071l-3.348-1.339L52.6 8.8c.4418278-.33137085.5313708-.9581722.2-1.4s-.9581722-.53137085-1.4-.2l-4 3c-.2893823.2168562-.4391428.5730505-.3916622.9315394.0474806.358489.2848042.6634153.6206622.7974606l5 2c.3318997.1325456.7093.0779563.9900376-.1432045.2807377-.2211609.4221621-.5752937.371-.9290001-.051162-.3537064-.2871379-.6532499-.6190376-.7857954z"/><path fill-rule="nonzero" d="M53.064 16.975c-5.2974088-1.3000096-10.8305912-1.3000096-16.128 0-.505902.1562685-.8023057.6797982-.676 1.194.9995791 4.013382 4.6040124 6.8302021 8.74 6.8302021S52.7404209 22.182382 53.74 18.169c.1263057-.5142018-.170098-1.0377315-.676-1.194zM45 23c-2.8566298.0102164-5.4313324-1.720776-6.5-4.37 2.1432811-.4052625 4.318785-.616119 6.5-.63 2.181215.013881 4.3567189.2247375 6.5.63-1.0686676 2.649224-3.6433702 4.3802164-6.5 4.37z"/></g></g></svg>